<mxfile host="app.diagrams.net" modified="2023-08-17T16:22:54.226Z" agent="Mozilla/5.0 (Windows NT 10.0; Win64; x64) AppleWebKit/537.36 (KHTML, like Gecko) Chrome/115.0.0.0 Safari/537.36" etag="ZmuxatmbGE9hP2aY7sfI" version="21.6.8" type="device">
  <diagram name="Page-1" id="RwiI079AIhKvK0Lc_4Rx">
    <mxGraphModel dx="1687" dy="929" grid="1" gridSize="10" guides="1" tooltips="1" connect="1" arrows="1" fold="1" page="1" pageScale="1" pageWidth="1169" pageHeight="827" math="0" shadow="0">
      <root>
        <mxCell id="0" />
        <mxCell id="1" parent="0" />
        <mxCell id="C9dezdWBaspMxFWtJovK-5" value="" style="endArrow=none;html=1;rounded=0;strokeColor=#6C8EBF;strokeWidth=3;" parent="1" edge="1" target="cw12b3K8NFvBaHwGcll2-37" source="cw12b3K8NFvBaHwGcll2-63">
          <mxGeometry width="50" height="50" relative="1" as="geometry">
            <mxPoint x="493.43" y="50" as="sourcePoint" />
            <mxPoint x="709.1157287525378" y="59.99572875253787" as="targetPoint" />
          </mxGeometry>
        </mxCell>
        <mxCell id="cw12b3K8NFvBaHwGcll2-1" value="Data &lt;br&gt;Analytics &lt;br&gt;Team" style="ellipse;whiteSpace=wrap;html=1;aspect=fixed;fillColor=#d5e8d4;strokeColor=#82b366;fontSize=16;fontStyle=1;strokeWidth=1;" parent="1" vertex="1">
          <mxGeometry x="567.93" y="367" width="160" height="160" as="geometry" />
        </mxCell>
        <mxCell id="cw12b3K8NFvBaHwGcll2-2" value="Technical" style="ellipse;whiteSpace=wrap;html=1;aspect=fixed;fillColor=#dae8fc;strokeColor=#6c8ebf;fontSize=16;" parent="1" vertex="1">
          <mxGeometry x="240" y="127" width="120" height="120" as="geometry" />
        </mxCell>
        <mxCell id="cw12b3K8NFvBaHwGcll2-3" value="Data" style="ellipse;whiteSpace=wrap;html=1;aspect=fixed;fillColor=#fff2cc;strokeColor=#d6b656;fontSize=16;" parent="1" vertex="1">
          <mxGeometry x="877.93" y="220" width="120" height="120" as="geometry" />
        </mxCell>
        <mxCell id="cw12b3K8NFvBaHwGcll2-4" value="Method" style="ellipse;whiteSpace=wrap;html=1;aspect=fixed;fillColor=#e1d5e7;strokeColor=#9673a6;fontSize=16;" parent="1" vertex="1">
          <mxGeometry x="607.93" y="595" width="120" height="120" as="geometry" />
        </mxCell>
        <mxCell id="cw12b3K8NFvBaHwGcll2-5" value="&lt;font style=&quot;font-size: 14px;&quot;&gt;Business&lt;br style=&quot;&quot;&gt;Intelligence&lt;/font&gt;" style="ellipse;whiteSpace=wrap;html=1;aspect=fixed;fillColor=#fff2cc;strokeColor=#d6b656;fontSize=16;" parent="1" vertex="1">
          <mxGeometry x="820" y="60" width="80" height="80" as="geometry" />
        </mxCell>
        <mxCell id="cw12b3K8NFvBaHwGcll2-6" value="" style="endArrow=none;html=1;rounded=0;fontSize=16;strokeWidth=3;strokeColor=#82b366;" parent="1" source="cw12b3K8NFvBaHwGcll2-1" target="cw12b3K8NFvBaHwGcll2-3" edge="1">
          <mxGeometry width="50" height="50" relative="1" as="geometry">
            <mxPoint x="837.93" y="267" as="sourcePoint" />
            <mxPoint x="887.93" y="217" as="targetPoint" />
          </mxGeometry>
        </mxCell>
        <mxCell id="cw12b3K8NFvBaHwGcll2-7" value="" style="endArrow=none;html=1;rounded=0;fontSize=16;strokeWidth=3;strokeColor=#82b366;" parent="1" source="cw12b3K8NFvBaHwGcll2-1" target="cw12b3K8NFvBaHwGcll2-2" edge="1">
          <mxGeometry width="50" height="50" relative="1" as="geometry">
            <mxPoint x="837.93" y="267" as="sourcePoint" />
            <mxPoint x="807.93" y="217" as="targetPoint" />
          </mxGeometry>
        </mxCell>
        <mxCell id="cw12b3K8NFvBaHwGcll2-8" value="" style="endArrow=none;html=1;rounded=0;fontSize=16;strokeWidth=3;strokeColor=#82b366;" parent="1" source="cw12b3K8NFvBaHwGcll2-1" target="cw12b3K8NFvBaHwGcll2-4" edge="1">
          <mxGeometry width="50" height="50" relative="1" as="geometry">
            <mxPoint x="779.1567264733995" y="437.00031398534844" as="sourcePoint" />
            <mxPoint x="1027.93" y="148.06" as="targetPoint" />
          </mxGeometry>
        </mxCell>
        <mxCell id="cw12b3K8NFvBaHwGcll2-9" value="" style="endArrow=none;html=1;rounded=0;fontSize=16;strokeColor=#D6B656;strokeWidth=3;" parent="1" source="cw12b3K8NFvBaHwGcll2-5" target="cw12b3K8NFvBaHwGcll2-3" edge="1">
          <mxGeometry width="50" height="50" relative="1" as="geometry">
            <mxPoint x="867.93" y="360" as="sourcePoint" />
            <mxPoint x="917.93" y="310" as="targetPoint" />
          </mxGeometry>
        </mxCell>
        <mxCell id="cw12b3K8NFvBaHwGcll2-10" value="Analysis" style="ellipse;whiteSpace=wrap;html=1;aspect=fixed;fillColor=#fff2cc;strokeColor=#d6b656;fontSize=16;" parent="1" vertex="1">
          <mxGeometry x="1010" y="407" width="80" height="80" as="geometry" />
        </mxCell>
        <mxCell id="cw12b3K8NFvBaHwGcll2-11" value="" style="endArrow=none;html=1;rounded=0;fontSize=16;strokeColor=#D6B656;strokeWidth=3;" parent="1" source="cw12b3K8NFvBaHwGcll2-3" target="cw12b3K8NFvBaHwGcll2-10" edge="1">
          <mxGeometry width="50" height="50" relative="1" as="geometry">
            <mxPoint x="867.93" y="360" as="sourcePoint" />
            <mxPoint x="917.93" y="310" as="targetPoint" />
          </mxGeometry>
        </mxCell>
        <mxCell id="cw12b3K8NFvBaHwGcll2-12" value="Linkage" style="ellipse;whiteSpace=wrap;html=1;aspect=fixed;fillColor=#fff2cc;strokeColor=#d6b656;fontSize=16;" parent="1" vertex="1">
          <mxGeometry x="870" y="421" width="80" height="80" as="geometry" />
        </mxCell>
        <mxCell id="cw12b3K8NFvBaHwGcll2-13" value="" style="endArrow=none;html=1;rounded=0;fontSize=16;strokeColor=#D6B656;strokeWidth=3;" parent="1" source="cw12b3K8NFvBaHwGcll2-12" target="cw12b3K8NFvBaHwGcll2-3" edge="1">
          <mxGeometry width="50" height="50" relative="1" as="geometry">
            <mxPoint x="867.93" y="360" as="sourcePoint" />
            <mxPoint x="917.93" y="310" as="targetPoint" />
          </mxGeometry>
        </mxCell>
        <mxCell id="cw12b3K8NFvBaHwGcll2-14" value="Management" style="ellipse;whiteSpace=wrap;html=1;aspect=fixed;fillColor=#fff2cc;strokeColor=#d6b656;fontSize=12;" parent="1" vertex="1">
          <mxGeometry x="960" y="50" width="80" height="80" as="geometry" />
        </mxCell>
        <mxCell id="cw12b3K8NFvBaHwGcll2-15" value="" style="endArrow=none;html=1;rounded=0;fontSize=16;strokeColor=#D6B656;strokeWidth=3;" parent="1" source="cw12b3K8NFvBaHwGcll2-3" target="cw12b3K8NFvBaHwGcll2-14" edge="1">
          <mxGeometry width="50" height="50" relative="1" as="geometry">
            <mxPoint x="867.93" y="360" as="sourcePoint" />
            <mxPoint x="917.93" y="310" as="targetPoint" />
          </mxGeometry>
        </mxCell>
        <mxCell id="cw12b3K8NFvBaHwGcll2-16" value="Visualisation" style="ellipse;whiteSpace=wrap;html=1;aspect=fixed;fillColor=#fff2cc;strokeColor=#d6b656;fontSize=14;" parent="1" vertex="1">
          <mxGeometry x="1050" y="157" width="80" height="80" as="geometry" />
        </mxCell>
        <mxCell id="cw12b3K8NFvBaHwGcll2-17" value="" style="endArrow=none;html=1;rounded=0;fontSize=16;strokeColor=#D6B656;strokeWidth=3;" parent="1" source="cw12b3K8NFvBaHwGcll2-3" target="cw12b3K8NFvBaHwGcll2-16" edge="1">
          <mxGeometry width="50" height="50" relative="1" as="geometry">
            <mxPoint x="1067.93" y="360" as="sourcePoint" />
            <mxPoint x="1117.93" y="310" as="targetPoint" />
          </mxGeometry>
        </mxCell>
        <mxCell id="cw12b3K8NFvBaHwGcll2-18" value="Warehousing" style="ellipse;whiteSpace=wrap;html=1;aspect=fixed;fillColor=#fff2cc;strokeColor=#d6b656;fontSize=12;" parent="1" vertex="1">
          <mxGeometry x="1060" y="287" width="80" height="80" as="geometry" />
        </mxCell>
        <mxCell id="cw12b3K8NFvBaHwGcll2-19" value="" style="endArrow=none;html=1;rounded=0;fontSize=16;strokeColor=#D6B656;strokeWidth=3;" parent="1" source="cw12b3K8NFvBaHwGcll2-3" target="cw12b3K8NFvBaHwGcll2-18" edge="1">
          <mxGeometry width="50" height="50" relative="1" as="geometry">
            <mxPoint x="1067.93" y="360" as="sourcePoint" />
            <mxPoint x="1117.93" y="310" as="targetPoint" />
          </mxGeometry>
        </mxCell>
        <mxCell id="cw12b3K8NFvBaHwGcll2-20" value="RDMS" style="ellipse;whiteSpace=wrap;html=1;aspect=fixed;fillColor=#fff2cc;strokeColor=#d6b656;fontSize=16;" parent="1" vertex="1">
          <mxGeometry x="717.93" y="190.34" width="80" height="80" as="geometry" />
        </mxCell>
        <mxCell id="cw12b3K8NFvBaHwGcll2-29" value="" style="endArrow=none;html=1;rounded=0;fontSize=16;strokeColor=#D6B656;strokeWidth=3;" parent="1" source="cw12b3K8NFvBaHwGcll2-3" target="cw12b3K8NFvBaHwGcll2-20" edge="1">
          <mxGeometry width="50" height="50" relative="1" as="geometry">
            <mxPoint x="1037.93" y="267" as="sourcePoint" />
            <mxPoint x="1087.93" y="217" as="targetPoint" />
          </mxGeometry>
        </mxCell>
        <mxCell id="cw12b3K8NFvBaHwGcll2-30" value=".NET" style="ellipse;whiteSpace=wrap;html=1;aspect=fixed;fillColor=#dae8fc;gradientColor=#e1d5e7;fontSize=16;strokeColor=#6C8EBF;" parent="1" vertex="1">
          <mxGeometry x="310.00000000000006" y="520" width="80" height="80" as="geometry" />
        </mxCell>
        <mxCell id="cw12b3K8NFvBaHwGcll2-31" value="" style="endArrow=none;html=1;fontSize=16;fillColor=#dae8fc;strokeWidth=3;rounded=0;strokeColor=#6c8ebf;" parent="1" source="cw12b3K8NFvBaHwGcll2-30" target="cw12b3K8NFvBaHwGcll2-84" edge="1">
          <mxGeometry width="50" height="50" relative="1" as="geometry">
            <mxPoint x="690" y="803" as="sourcePoint" />
            <mxPoint x="740" y="753" as="targetPoint" />
          </mxGeometry>
        </mxCell>
        <mxCell id="cw12b3K8NFvBaHwGcll2-32" value="Cloud Services" style="ellipse;whiteSpace=wrap;html=1;aspect=fixed;fillColor=#dae8fc;strokeColor=#6c8ebf;fontSize=16;" parent="1" vertex="1">
          <mxGeometry x="90" y="140" width="80" height="80" as="geometry" />
        </mxCell>
        <mxCell id="cw12b3K8NFvBaHwGcll2-33" value="" style="endArrow=none;html=1;rounded=0;fontSize=16;strokeColor=#6C8EBF;strokeWidth=3;" parent="1" source="cw12b3K8NFvBaHwGcll2-32" target="cw12b3K8NFvBaHwGcll2-2" edge="1">
          <mxGeometry width="50" height="50" relative="1" as="geometry">
            <mxPoint x="370" y="117" as="sourcePoint" />
            <mxPoint x="420" y="67" as="targetPoint" />
          </mxGeometry>
        </mxCell>
        <mxCell id="cw12b3K8NFvBaHwGcll2-34" value="SQL" style="ellipse;whiteSpace=wrap;html=1;aspect=fixed;gradientDirection=east;fillColor=#dae8fc;strokeColor=#6c8ebf;gradientColor=#fff2cc;fontSize=16;" parent="1" vertex="1">
          <mxGeometry x="580" y="130" width="80" height="80" as="geometry" />
        </mxCell>
        <mxCell id="cw12b3K8NFvBaHwGcll2-36" value="" style="endArrow=none;html=1;rounded=0;fontSize=16;strokeColor=#D6B656;strokeWidth=3;" parent="1" source="cw12b3K8NFvBaHwGcll2-34" target="cw12b3K8NFvBaHwGcll2-20" edge="1">
          <mxGeometry width="50" height="50" relative="1" as="geometry">
            <mxPoint x="657.5788120432962" y="193.04521380402556" as="sourcePoint" />
            <mxPoint x="740.93" y="126.34" as="targetPoint" />
          </mxGeometry>
        </mxCell>
        <mxCell id="cw12b3K8NFvBaHwGcll2-37" value="Apache&lt;br style=&quot;font-size: 16px;&quot;&gt;Spark" style="ellipse;whiteSpace=wrap;html=1;aspect=fixed;fillColor=#dae8fc;strokeColor=#6c8ebf;gradientDirection=east;gradientColor=#fff2cc;fontSize=16;" parent="1" vertex="1">
          <mxGeometry x="670" y="40" width="80" height="80" as="geometry" />
        </mxCell>
        <mxCell id="cw12b3K8NFvBaHwGcll2-41" value="C#" style="ellipse;whiteSpace=wrap;html=1;aspect=fixed;fillColor=#dae8fc;gradientColor=#e1d5e7;fontSize=16;strokeColor=#6C8EBF;" parent="1" vertex="1">
          <mxGeometry x="98.93" y="515" width="80" height="80" as="geometry" />
        </mxCell>
        <mxCell id="cw12b3K8NFvBaHwGcll2-42" value="" style="endArrow=none;html=1;rounded=0;fontSize=16;fillColor=#dae8fc;strokeWidth=3;strokeColor=#6c8ebf;" parent="1" source="cw12b3K8NFvBaHwGcll2-84" target="cw12b3K8NFvBaHwGcll2-41" edge="1">
          <mxGeometry width="50" height="50" relative="1" as="geometry">
            <mxPoint x="830" y="803" as="sourcePoint" />
            <mxPoint x="880" y="753" as="targetPoint" />
          </mxGeometry>
        </mxCell>
        <mxCell id="cw12b3K8NFvBaHwGcll2-43" value="Cognitive Services" style="ellipse;whiteSpace=wrap;html=1;aspect=fixed;fillColor=#dae8fc;strokeColor=#6c8ebf;fontSize=16;" parent="1" vertex="1">
          <mxGeometry x="600" y="254" width="80" height="80" as="geometry" />
        </mxCell>
        <mxCell id="cw12b3K8NFvBaHwGcll2-44" value="Azure" style="ellipse;whiteSpace=wrap;html=1;aspect=fixed;fillColor=#dae8fc;strokeColor=#6c8ebf;fontSize=16;" parent="1" vertex="1">
          <mxGeometry x="440" y="190.34" width="80" height="80" as="geometry" />
        </mxCell>
        <mxCell id="cw12b3K8NFvBaHwGcll2-45" value="" style="endArrow=none;html=1;rounded=0;fontSize=16;strokeColor=#6C8EBF;strokeWidth=3;" parent="1" source="cw12b3K8NFvBaHwGcll2-44" target="cw12b3K8NFvBaHwGcll2-2" edge="1">
          <mxGeometry width="50" height="50" relative="1" as="geometry">
            <mxPoint x="437.93" y="197" as="sourcePoint" />
            <mxPoint x="487.93" y="147" as="targetPoint" />
          </mxGeometry>
        </mxCell>
        <mxCell id="cw12b3K8NFvBaHwGcll2-46" value="" style="endArrow=none;html=1;rounded=0;fontSize=16;strokeColor=#6C8EBF;strokeWidth=3;" parent="1" target="cw12b3K8NFvBaHwGcll2-44" edge="1">
          <mxGeometry width="50" height="50" relative="1" as="geometry">
            <mxPoint x="603.4906815872064" y="286.9977336628447" as="sourcePoint" />
            <mxPoint x="487.93" y="156.34" as="targetPoint" />
          </mxGeometry>
        </mxCell>
        <mxCell id="cw12b3K8NFvBaHwGcll2-47" value="CSS" style="ellipse;whiteSpace=wrap;html=1;aspect=fixed;fillColor=#dae8fc;gradientColor=#e1d5e7;fontSize=16;strokeColor=#6C8EBF;" parent="1" vertex="1">
          <mxGeometry x="199.46" y="540" width="80" height="80" as="geometry" />
        </mxCell>
        <mxCell id="cw12b3K8NFvBaHwGcll2-48" value="" style="endArrow=none;html=1;rounded=0;fontSize=16;fillColor=#dae8fc;strokeWidth=3;strokeColor=#6c8ebf;" parent="1" source="cw12b3K8NFvBaHwGcll2-47" target="cw12b3K8NFvBaHwGcll2-84" edge="1">
          <mxGeometry width="50" height="50" relative="1" as="geometry">
            <mxPoint x="830" y="803" as="sourcePoint" />
            <mxPoint x="880" y="753" as="targetPoint" />
          </mxGeometry>
        </mxCell>
        <mxCell id="cw12b3K8NFvBaHwGcll2-49" value="Dev Ops" style="ellipse;whiteSpace=wrap;html=1;aspect=fixed;fillColor=#dae8fc;strokeColor=#6c8ebf;fontSize=16;" parent="1" vertex="1">
          <mxGeometry x="150" y="17" width="80" height="80" as="geometry" />
        </mxCell>
        <mxCell id="cw12b3K8NFvBaHwGcll2-50" value="" style="endArrow=none;html=1;rounded=0;fontSize=16;strokeColor=#6C8EBF;strokeWidth=3;" parent="1" source="cw12b3K8NFvBaHwGcll2-49" target="cw12b3K8NFvBaHwGcll2-2" edge="1">
          <mxGeometry width="50" height="50" relative="1" as="geometry">
            <mxPoint x="400" y="117" as="sourcePoint" />
            <mxPoint x="450" y="67" as="targetPoint" />
          </mxGeometry>
        </mxCell>
        <mxCell id="cw12b3K8NFvBaHwGcll2-53" value="HTML" style="ellipse;whiteSpace=wrap;html=1;aspect=fixed;fillColor=#dae8fc;gradientColor=#e1d5e7;fontSize=16;strokeColor=#6C8EBF;" parent="1" vertex="1">
          <mxGeometry x="40" y="334" width="80" height="80" as="geometry" />
        </mxCell>
        <mxCell id="cw12b3K8NFvBaHwGcll2-54" value="" style="endArrow=none;html=1;rounded=0;fontSize=16;strokeColor=#6C8EBF;strokeWidth=3;" parent="1" source="cw12b3K8NFvBaHwGcll2-84" target="cw12b3K8NFvBaHwGcll2-2" edge="1">
          <mxGeometry width="50" height="50" relative="1" as="geometry">
            <mxPoint x="507.93" y="267" as="sourcePoint" />
            <mxPoint x="557.93" y="217" as="targetPoint" />
          </mxGeometry>
        </mxCell>
        <mxCell id="cw12b3K8NFvBaHwGcll2-55" value="Java" style="ellipse;whiteSpace=wrap;html=1;aspect=fixed;fillColor=#dae8fc;gradientColor=#e1d5e7;fontSize=16;strokeColor=#6C8EBF;" parent="1" vertex="1">
          <mxGeometry x="40.00000000000001" y="430" width="80" height="80" as="geometry" />
        </mxCell>
        <mxCell id="cw12b3K8NFvBaHwGcll2-56" value="Javascript" style="ellipse;whiteSpace=wrap;html=1;aspect=fixed;fillColor=#dae8fc;gradientColor=#e1d5e7;fontSize=16;strokeColor=#6C8EBF;" parent="1" vertex="1">
          <mxGeometry x="110" y="261" width="80" height="80" as="geometry" />
        </mxCell>
        <mxCell id="cw12b3K8NFvBaHwGcll2-57" value="" style="endArrow=none;html=1;rounded=0;fontSize=16;fillColor=#dae8fc;strokeWidth=3;strokeColor=#6c8ebf;" parent="1" source="cw12b3K8NFvBaHwGcll2-55" target="cw12b3K8NFvBaHwGcll2-84" edge="1">
          <mxGeometry width="50" height="50" relative="1" as="geometry">
            <mxPoint x="640" y="803" as="sourcePoint" />
            <mxPoint x="690" y="753" as="targetPoint" />
          </mxGeometry>
        </mxCell>
        <mxCell id="cw12b3K8NFvBaHwGcll2-58" value="" style="endArrow=none;html=1;rounded=0;fontSize=16;strokeWidth=3;fillColor=#dae8fc;strokeColor=#6c8ebf;" parent="1" source="cw12b3K8NFvBaHwGcll2-56" target="cw12b3K8NFvBaHwGcll2-84" edge="1">
          <mxGeometry width="50" height="50" relative="1" as="geometry">
            <mxPoint x="173.4908201825089" y="514.871556037557" as="sourcePoint" />
            <mxPoint x="690" y="753" as="targetPoint" />
          </mxGeometry>
        </mxCell>
        <mxCell id="cw12b3K8NFvBaHwGcll2-61" value="R" style="ellipse;whiteSpace=wrap;html=1;aspect=fixed;gradientDirection=east;fillColor=#dae8fc;strokeColor=#6c8ebf;gradientColor=none;fontSize=16;" parent="1" vertex="1">
          <mxGeometry x="330" y="17" width="80" height="80" as="geometry" />
        </mxCell>
        <mxCell id="cw12b3K8NFvBaHwGcll2-62" value="" style="endArrow=none;html=1;rounded=0;fontSize=16;strokeColor=#6C8EBF;strokeWidth=3;" parent="1" source="cw12b3K8NFvBaHwGcll2-2" target="cw12b3K8NFvBaHwGcll2-61" edge="1">
          <mxGeometry width="50" height="50" relative="1" as="geometry">
            <mxPoint x="737.93" y="267" as="sourcePoint" />
            <mxPoint x="787.93" y="217" as="targetPoint" />
          </mxGeometry>
        </mxCell>
        <mxCell id="cw12b3K8NFvBaHwGcll2-63" value="Python" style="ellipse;whiteSpace=wrap;html=1;aspect=fixed;gradientDirection=east;fillColor=#dae8fc;strokeColor=#6c8ebf;gradientColor=none;fontSize=16;" parent="1" vertex="1">
          <mxGeometry x="492.43" y="40" width="80" height="80" as="geometry" />
        </mxCell>
        <mxCell id="cw12b3K8NFvBaHwGcll2-64" value="" style="endArrow=none;html=1;rounded=0;fontSize=16;strokeColor=#6C8EBF;strokeWidth=3;" parent="1" source="cw12b3K8NFvBaHwGcll2-63" target="cw12b3K8NFvBaHwGcll2-2" edge="1">
          <mxGeometry width="50" height="50" relative="1" as="geometry">
            <mxPoint x="737.93" y="267" as="sourcePoint" />
            <mxPoint x="787.93" y="217" as="targetPoint" />
          </mxGeometry>
        </mxCell>
        <mxCell id="cw12b3K8NFvBaHwGcll2-67" value="Agile" style="ellipse;whiteSpace=wrap;html=1;aspect=fixed;fillColor=#e1d5e7;strokeColor=#9673a6;fontSize=16;" parent="1" vertex="1">
          <mxGeometry x="660" y="740" width="80" height="80" as="geometry" />
        </mxCell>
        <mxCell id="cw12b3K8NFvBaHwGcll2-68" value="" style="endArrow=none;html=1;rounded=0;fontSize=16;strokeColor=#9673A6;strokeWidth=3;" parent="1" source="cw12b3K8NFvBaHwGcll2-4" target="cw12b3K8NFvBaHwGcll2-67" edge="1">
          <mxGeometry width="50" height="50" relative="1" as="geometry">
            <mxPoint x="877.93" y="698.06" as="sourcePoint" />
            <mxPoint x="927.93" y="648.06" as="targetPoint" />
          </mxGeometry>
        </mxCell>
        <mxCell id="cw12b3K8NFvBaHwGcll2-69" value="De-identification" style="ellipse;whiteSpace=wrap;html=1;aspect=fixed;fillColor=#e1d5e7;strokeColor=#9673a6;fontSize=14;" parent="1" vertex="1">
          <mxGeometry x="790" y="680" width="80" height="80" as="geometry" />
        </mxCell>
        <mxCell id="cw12b3K8NFvBaHwGcll2-70" value="" style="endArrow=none;html=1;rounded=0;fontSize=16;strokeColor=#9673A6;strokeWidth=3;" parent="1" source="cw12b3K8NFvBaHwGcll2-4" target="cw12b3K8NFvBaHwGcll2-69" edge="1">
          <mxGeometry width="50" height="50" relative="1" as="geometry">
            <mxPoint x="877.93" y="698.06" as="sourcePoint" />
            <mxPoint x="927.93" y="648.06" as="targetPoint" />
          </mxGeometry>
        </mxCell>
        <mxCell id="cw12b3K8NFvBaHwGcll2-71" value="ETL" style="ellipse;whiteSpace=wrap;html=1;aspect=fixed;fillColor=#e1d5e7;strokeColor=#9673a6;fontSize=16;" parent="1" vertex="1">
          <mxGeometry x="820" y="560" width="80" height="80" as="geometry" />
        </mxCell>
        <mxCell id="cw12b3K8NFvBaHwGcll2-72" value="" style="endArrow=none;html=1;rounded=0;fontSize=16;strokeColor=#9673A6;strokeWidth=3;" parent="1" source="cw12b3K8NFvBaHwGcll2-71" target="cw12b3K8NFvBaHwGcll2-4" edge="1">
          <mxGeometry width="50" height="50" relative="1" as="geometry">
            <mxPoint x="877.93" y="698.06" as="sourcePoint" />
            <mxPoint x="927.93" y="648.06" as="targetPoint" />
          </mxGeometry>
        </mxCell>
        <mxCell id="cw12b3K8NFvBaHwGcll2-73" value="Information Governance" style="ellipse;whiteSpace=wrap;html=1;aspect=fixed;fillColor=#e1d5e7;strokeColor=#9673a6;fontSize=14;" parent="1" vertex="1">
          <mxGeometry x="450" y="670" width="80" height="80" as="geometry" />
        </mxCell>
        <mxCell id="cw12b3K8NFvBaHwGcll2-74" value="" style="endArrow=none;html=1;rounded=0;fontSize=16;strokeColor=#9673A6;strokeWidth=3;" parent="1" source="cw12b3K8NFvBaHwGcll2-73" target="cw12b3K8NFvBaHwGcll2-4" edge="1">
          <mxGeometry width="50" height="50" relative="1" as="geometry">
            <mxPoint x="877.93" y="698.06" as="sourcePoint" />
            <mxPoint x="927.93" y="648.06" as="targetPoint" />
          </mxGeometry>
        </mxCell>
        <mxCell id="cw12b3K8NFvBaHwGcll2-75" value="Machine Learning" style="ellipse;whiteSpace=wrap;html=1;aspect=fixed;gradientColor=#e1d5e7;fillColor=#dae8fc;fontSize=16;strokeColor=#6C8EBF;" parent="1" vertex="1">
          <mxGeometry x="360" y="310" width="80" height="80" as="geometry" />
        </mxCell>
        <mxCell id="cw12b3K8NFvBaHwGcll2-76" value="" style="endArrow=none;html=1;rounded=0;fontSize=16;strokeColor=#9673A6;strokeWidth=3;" parent="1" source="cw12b3K8NFvBaHwGcll2-4" target="cw12b3K8NFvBaHwGcll2-75" edge="1">
          <mxGeometry width="50" height="50" relative="1" as="geometry">
            <mxPoint x="737.93" y="767" as="sourcePoint" />
            <mxPoint x="787.93" y="717" as="targetPoint" />
          </mxGeometry>
        </mxCell>
        <mxCell id="cw12b3K8NFvBaHwGcll2-78" value="Natural Language Processing" style="ellipse;whiteSpace=wrap;html=1;aspect=fixed;fillColor=#e1d5e7;strokeColor=#9673a6;fontSize=14;" parent="1" vertex="1">
          <mxGeometry x="760" y="470" width="80" height="80" as="geometry" />
        </mxCell>
        <mxCell id="cw12b3K8NFvBaHwGcll2-79" value="" style="endArrow=none;html=1;rounded=0;fontSize=16;strokeColor=#9673A6;strokeWidth=3;" parent="1" source="cw12b3K8NFvBaHwGcll2-78" target="cw12b3K8NFvBaHwGcll2-4" edge="1">
          <mxGeometry width="50" height="50" relative="1" as="geometry">
            <mxPoint x="877.93" y="698.06" as="sourcePoint" />
            <mxPoint x="927.93" y="648.06" as="targetPoint" />
          </mxGeometry>
        </mxCell>
        <mxCell id="cw12b3K8NFvBaHwGcll2-80" value="Statistics" style="ellipse;whiteSpace=wrap;html=1;aspect=fixed;fillColor=#e1d5e7;strokeColor=#9673a6;fontSize=16;" parent="1" vertex="1">
          <mxGeometry x="540" y="740" width="80" height="80" as="geometry" />
        </mxCell>
        <mxCell id="cw12b3K8NFvBaHwGcll2-81" value="" style="endArrow=none;html=1;rounded=0;fontSize=16;strokeColor=#9673A6;strokeWidth=3;" parent="1" source="cw12b3K8NFvBaHwGcll2-4" target="cw12b3K8NFvBaHwGcll2-80" edge="1">
          <mxGeometry width="50" height="50" relative="1" as="geometry">
            <mxPoint x="877.93" y="698.06" as="sourcePoint" />
            <mxPoint x="927.93" y="648.06" as="targetPoint" />
          </mxGeometry>
        </mxCell>
        <mxCell id="cw12b3K8NFvBaHwGcll2-82" value="Trusted Research Environments" style="ellipse;whiteSpace=wrap;html=1;aspect=fixed;fillColor=#e1d5e7;strokeColor=#9673a6;fontSize=12;" parent="1" vertex="1">
          <mxGeometry x="420" y="570" width="80" height="80" as="geometry" />
        </mxCell>
        <mxCell id="cw12b3K8NFvBaHwGcll2-83" value="" style="endArrow=none;html=1;rounded=0;fontSize=16;strokeColor=#9673A6;strokeWidth=3;" parent="1" source="cw12b3K8NFvBaHwGcll2-4" target="cw12b3K8NFvBaHwGcll2-82" edge="1">
          <mxGeometry width="50" height="50" relative="1" as="geometry">
            <mxPoint x="877.93" y="698.06" as="sourcePoint" />
            <mxPoint x="927.93" y="648.06" as="targetPoint" />
          </mxGeometry>
        </mxCell>
        <mxCell id="cw12b3K8NFvBaHwGcll2-84" value="Web Development" style="ellipse;whiteSpace=wrap;html=1;aspect=fixed;fillColor=#dae8fc;gradientColor=#e1d5e7;fontSize=16;strokeColor=#6C8EBF;" parent="1" vertex="1">
          <mxGeometry x="199.46" y="341" width="101.07" height="101.07" as="geometry" />
        </mxCell>
        <mxCell id="cw12b3K8NFvBaHwGcll2-85" value="" style="endArrow=none;html=1;rounded=0;fontSize=16;strokeColor=#6C8EBF;strokeWidth=3;" parent="1" source="cw12b3K8NFvBaHwGcll2-84" target="C9dezdWBaspMxFWtJovK-6" edge="1">
          <mxGeometry width="50" height="50" relative="1" as="geometry">
            <mxPoint x="737.93" y="767" as="sourcePoint" />
            <mxPoint x="787.93" y="717" as="targetPoint" />
          </mxGeometry>
        </mxCell>
        <mxCell id="cw12b3K8NFvBaHwGcll2-87" value="" style="endArrow=none;html=1;rounded=0;fontSize=16;fillColor=#dae8fc;strokeWidth=3;strokeColor=#6c8ebf;" parent="1" source="cw12b3K8NFvBaHwGcll2-84" target="cw12b3K8NFvBaHwGcll2-53" edge="1">
          <mxGeometry width="50" height="50" relative="1" as="geometry">
            <mxPoint x="880" y="953" as="sourcePoint" />
            <mxPoint x="930" y="903" as="targetPoint" />
          </mxGeometry>
        </mxCell>
        <mxCell id="cw12b3K8NFvBaHwGcll2-90" value="" style="endArrow=none;html=1;rounded=0;fontSize=16;strokeColor=#6C8EBF;strokeWidth=3;" parent="1" source="cw12b3K8NFvBaHwGcll2-44" target="cw12b3K8NFvBaHwGcll2-34" edge="1">
          <mxGeometry width="50" height="50" relative="1" as="geometry">
            <mxPoint x="357.93" y="446.34" as="sourcePoint" />
            <mxPoint x="582.3806500545611" y="192.93354661894008" as="targetPoint" />
          </mxGeometry>
        </mxCell>
        <mxCell id="res4liufjP142V7Sd3_B-16" value="" style="endArrow=none;html=1;rounded=0;fontSize=16;strokeColor=#D6B656;strokeWidth=3;" parent="1" source="cw12b3K8NFvBaHwGcll2-3" target="cw12b3K8NFvBaHwGcll2-37" edge="1">
          <mxGeometry width="50" height="50" relative="1" as="geometry">
            <mxPoint x="228.93" y="507" as="sourcePoint" />
            <mxPoint x="278.93" y="457" as="targetPoint" />
          </mxGeometry>
        </mxCell>
        <mxCell id="ffu1Hpb9arm5WpHb0Qx2-6" value="" style="endArrow=none;html=1;rounded=0;fontSize=16;strokeColor=#6C8EBF;strokeWidth=3;" parent="1" source="cw12b3K8NFvBaHwGcll2-2" target="cw12b3K8NFvBaHwGcll2-75" edge="1">
          <mxGeometry width="50" height="50" relative="1" as="geometry">
            <mxPoint x="418.93" y="347" as="sourcePoint" />
            <mxPoint x="468.93" y="297" as="targetPoint" />
          </mxGeometry>
        </mxCell>
        <mxCell id="C9dezdWBaspMxFWtJovK-6" value="&lt;font style=&quot;font-size: 14px;&quot;&gt;API development&lt;/font&gt;" style="ellipse;whiteSpace=wrap;html=1;aspect=fixed;fillColor=#dae8fc;strokeColor=#6C8EBF;fontSize=16;gradientColor=#e1d5e7;" parent="1" vertex="1">
          <mxGeometry x="385.92999999999995" y="445.5" width="83" height="83" as="geometry" />
        </mxCell>
        <mxCell id="C9dezdWBaspMxFWtJovK-7" value="" style="endArrow=none;html=1;rounded=0;fontSize=16;strokeColor=#9673A6;strokeWidth=3;" parent="1" source="cw12b3K8NFvBaHwGcll2-4" target="C9dezdWBaspMxFWtJovK-6" edge="1">
          <mxGeometry width="50" height="50" relative="1" as="geometry">
            <mxPoint x="559.93" y="720" as="sourcePoint" />
            <mxPoint x="804.93" y="658.06" as="targetPoint" />
          </mxGeometry>
        </mxCell>
        <mxCell id="OWSGBIlD8WM7xD-7mU3G-1" style="edgeStyle=orthogonalEdgeStyle;rounded=0;orthogonalLoop=1;jettySize=auto;html=1;exitX=0.5;exitY=1;exitDx=0;exitDy=0;" edge="1" parent="1" source="C9dezdWBaspMxFWtJovK-6" target="C9dezdWBaspMxFWtJovK-6">
          <mxGeometry relative="1" as="geometry" />
        </mxCell>
      </root>
    </mxGraphModel>
  </diagram>
</mxfile>
